<svg role="img" viewBox="0 0 48 48" xmlns="http://www.w3.org/2000/svg" id="Astro--Streamline-Simple-Icons" height="48" width="48">
  <desc>
    Astro Streamline Icon: https://streamlinehq.com
  </desc>
  <title>Astro</title>
  <path d="M16.716 40.324c-2.372 -2.14 -3.064 -6.632 -2.076 -9.888 1.712 2.052 4.086 2.704 6.544 3.07 3.794 0.566 7.52 0.354 11.044 -1.356 0.404 -0.196 0.776 -0.458 1.216 -0.72 0.332 0.946 0.418 1.9 0.302 2.874 -0.28 2.37 -1.476 4.2 -3.376 5.588 -0.76 0.554 -1.564 1.05 -2.35 1.574 -2.41 1.608 -3.062 3.494 -2.156 6.238l0.088 0.296a6.316 6.316 0 0 1 -2.814 -2.376 6.62 6.62 0 0 1 -1.088 -3.63c-0.008 -0.64 -0.008 -1.284 -0.096 -1.916 -0.212 -1.538 -0.944 -2.226 -2.322 -2.266 -1.414 -0.04 -2.534 0.822 -2.83 2.18 -0.024 0.106 -0.056 0.208 -0.09 0.33h0.004zm-11.922 -8.89s6.48 -3.15 12.98 -3.15l4.902 -15.13c0.184 -0.732 0.72 -1.228 1.324 -1.228 0.604 0 1.14 0.496 1.324 1.228l4.9 15.13c7.7 0 12.982 3.15 12.982 3.15L32.176 1.454C31.86 0.57 31.326 0 30.606 0H17.394c-0.72 0 -1.23 0.57 -1.568 1.454l-11.032 29.98z" fill="#034d54" stroke-width="2"></path>
</svg>