<svg role="img" viewBox="0 0 48 48" xmlns="http://www.w3.org/2000/svg" id="Datadog--Streamline-Simple-Icons" height="48" width="48">
  <desc>
    Datadog Streamline Icon: https://streamlinehq.com
  </desc>
  <title>Datadog</title>
  <path d="m39.14 34.08 -3.994 -2.632 -3.33 5.564 -3.874 -1.134 -3.412 5.208 0.174 1.64 18.548 -3.42 -1.076 -11.588zm-17.298 -4.996 2.976 -0.408c0.482 0.216 0.818 0.3 1.394 0.446 0.9 0.234 1.94 0.46 3.482 -0.32 0.36 -0.176 1.106 -0.86 1.408 -1.25l12.192 -2.212 1.244 15.054 -20.888 3.764zm22.65 -5.424 -1.204 0.23L40.976 0 1.578 4.57l4.854 39.386 4.612 -0.668c-0.368 -0.526 -0.942 -1.162 -1.92 -1.978 -1.36 -1.128 -0.88 -3.044 -0.078 -4.254 1.06 -2.044 6.52 -4.644 6.212 -7.912 -0.112 -1.188 -0.3 -2.736 -1.404 -3.796 -0.04 0.44 0.034 0.864 0.034 0.864s-0.454 -0.578 -0.68 -1.366c-0.224 -0.3 -0.4 -0.398 -0.638 -0.8 -0.17 0.466 -0.146 1.006 -0.146 1.006s-0.372 -0.874 -0.432 -1.614c-0.22 0.332 -0.274 0.96 -0.274 0.96s-0.482 -1.38 -0.372 -2.124c-0.22 -0.646 -0.872 -1.93 -0.686 -4.848 1.2 0.842 3.848 0.642 4.88 -0.878 0.342 -0.502 0.576 -1.878 -0.172 -4.586 -0.48 -1.736 -1.67 -4.32 -2.132 -5.302l-0.056 0.04c0.244 0.79 0.748 2.446 0.94 3.25 0.586 2.436 0.744 3.284 0.468 4.408 -0.232 0.976 -0.794 1.616 -2.214 2.33 -1.42 0.716 -3.306 -1.028 -3.426 -1.124 -1.38 -1.1 -2.448 -2.894 -2.568 -3.766 -0.124 -0.954 0.55 -1.526 0.89 -2.306 -0.486 0.14 -1.028 0.384 -1.028 0.384s0.646 -0.668 1.444 -1.248c0.33 -0.218 0.524 -0.356 0.872 -0.646a19.524 19.524 0 0 0 -0.912 0.006s0.84 -0.454 1.71 -0.784c-0.636 -0.028 -1.246 -0.006 -1.246 -0.006s1.874 -0.838 3.356 -1.454c1.018 -0.416 2.012 -0.294 2.572 0.514 0.734 1.06 1.504 1.634 3.138 1.992 1.002 -0.446 1.306 -0.674 2.568 -1.018 1.108 -1.22 1.98 -1.376 1.98 -1.376s-0.432 0.396 -0.548 1.02c0.628 -0.498 1.32 -0.91 1.32 -0.91s-0.268 0.328 -0.518 0.852l0.06 0.086c0.732 -0.44 1.594 -0.788 1.594 -0.788s-0.246 0.312 -0.536 0.716c0.554 -0.004 1.676 0.024 2.112 0.074 2.57 0.056 3.104 -2.748 4.09 -3.1 1.236 -0.44 1.788 -0.706 3.894 1.36 1.806 1.776 3.218 4.954 2.518 5.666 -0.588 0.59 -1.748 -0.23 -3.032 -1.832a6.932 6.932 0 0 1 -1.432 -3.124 3.066 3.066 0 0 0 -0.994 -1.7s0.46 1.02 0.46 1.92c0 0.492 0.06 2.33 0.848 3.36 -0.078 0.152 -0.114 0.748 -0.2 0.86 -0.916 -1.108 -2.886 -1.9 -3.208 -2.134 1.088 0.89 3.586 2.936 4.546 4.898 0.906 1.854 0.372 3.554 0.832 3.994 0.13 0.126 1.952 2.394 2.3 3.534 0.612 1.988 0.038 4.076 -0.762 5.37l-2.234 0.348c-0.326 -0.09 -0.546 -0.136 -0.84 -0.306 0.16 -0.286 0.482 -1 0.486 -1.144l-0.126 -0.222c-0.696 0.984 -1.86 1.94 -2.828 2.49 -1.266 0.718 -2.726 0.608 -3.676 0.312 -2.696 -0.83 -5.246 -2.654 -5.86 -3.132 0 0 -0.02 0.382 0.096 0.468 0.68 0.766 2.238 2.154 3.744 3.12l-3.21 0.354 1.518 11.816c-0.674 0.096 -0.78 0.142 -1.514 0.248 -0.65 -2.294 -1.892 -3.79 -3.248 -4.664 -1.198 -0.768 -2.848 -0.94 -4.428 -0.628l-0.1 0.118a5.702 5.702 0 0 1 3.726 0.888c1.308 0.826 2.362 2.962 2.75 4.248 0.496 1.644 0.84 3.4 -0.496 5.264 -0.952 1.324 -3.728 2.056 -5.972 0.474 0.6 0.962 1.41 1.752 2.5 1.9 1.618 0.22 3.154 -0.06 4.212 -1.148 0.904 -0.928 1.38 -2.868 1.256 -4.912l1.428 -0.208 0.516 3.668 23.654 -2.848zM30.1 13.696c-0.068 0.15 -0.17 0.25 -0.014 0.74l0.008 0.028 0.026 0.064 0.064 0.146c0.28 0.574 0.59 1.116 1.104 1.392 0.134 -0.022 0.272 -0.038 0.414 -0.046 0.484 -0.02 0.79 0.056 0.984 0.16 0.018 -0.096 0.02 -0.238 0.01 -0.444 -0.036 -0.728 0.144 -1.964 -1.252 -2.616 -0.528 -0.244 -1.268 -0.168 -1.514 0.136a0.604 0.604 0 0 1 0.116 0.026c0.372 0.132 0.12 0.26 0.054 0.414m3.916 6.784c-0.184 -0.1 -1.04 -0.06 -1.642 0.01 -1.148 0.136 -2.386 0.534 -2.656 0.744 -0.494 0.382 -0.27 1.046 0.094 1.32 1.022 0.764 1.92 1.276 2.864 1.15 0.58 -0.076 1.092 -0.994 1.456 -1.828 0.248 -0.576 0.248 -1.196 -0.116 -1.396m-10.154 -5.884c0.324 -0.308 -1.61 -0.71 -3.112 0.312 -1.108 0.756 -1.142 2.374 -0.082 3.292 0.106 0.092 0.192 0.156 0.274 0.208a9.54 9.54 0 0 1 2.792 -0.824c0.226 -0.25 0.486 -0.69 0.42 -1.49 -0.088 -1.084 -0.91 -0.912 -0.292 -1.498" fill="#77bef8" stroke-width="2"></path>
</svg>