<svg role="img" viewBox="0 0 48 48" xmlns="http://www.w3.org/2000/svg" id="Figma--Streamline-Simple-Icons" height="48" width="48">
  <desc>
    Figma Streamline Icon: https://streamlinehq.com
  </desc>
  <title>Figma</title>
  <path d="M31.704 17.962h-9.176V0h9.176c4.952 0 8.98 4.028 8.98 8.98s-4.028 8.982 -8.98 8.982zM25.47 15.02h6.234c3.33 0 6.038 -2.71 6.038 -6.038s-2.71 -6.038 -6.038 -6.038h-6.234V15.02zm0 2.942H16.296c-4.952 0 -8.98 -4.028 -8.98 -8.98S11.344 0 16.296 0h9.176v17.962zm-9.174 -15.02c-3.33 0 -6.038 2.71 -6.038 6.038s2.708 6.04 6.038 6.04h6.234V2.942H16.296zm9.174 30.038H16.296c-4.952 0 -8.98 -4.028 -8.98 -8.98s4.028 -8.98 8.98 -8.98h9.176v17.96zM16.296 17.962c-3.33 0 -6.038 2.71 -6.038 6.038s2.71 6.038 6.038 6.038h6.234V17.962H16.296zM16.344 48c-4.978 0 -9.03 -4.028 -9.03 -8.98s4.028 -8.98 8.98 -8.98h9.176v8.882c0 5.006 -4.094 9.078 -9.126 9.078zm-0.048 -15.02a6.046 6.046 0 0 0 -6.038 6.038c0 3.33 2.73 6.038 6.088 6.038 3.41 0 6.186 -2.752 6.186 -6.136v-5.94H16.296zm15.408 0h-0.196c-4.952 0 -8.98 -4.028 -8.98 -8.98s4.028 -8.98 8.98 -8.98h0.196c4.952 0 8.98 4.028 8.98 8.98s-4.028 8.98 -8.98 8.98zm-0.194 -15.018c-3.33 0 -6.038 2.71 -6.038 6.038s2.71 6.038 6.038 6.038h0.196c3.33 0 6.038 -2.71 6.038 -6.038s-2.71 -6.038 -6.038 -6.038h-0.196z" fill="#77bef8" stroke-width="2"></path>
</svg>