<svg role="img" viewBox="0 0 48 48" xmlns="http://www.w3.org/2000/svg" id="Git--Streamline-Simple-Icons" height="48" width="48">
  <desc>
    Git Streamline Icon: https://streamlinehq.com
  </desc>
  <title>Git</title>
  <path d="M47.092 21.86 26.134 0.904c-1.208 -1.206 -3.164 -1.206 -4.376 0L17.416 5.254l5.52 5.52c1.29 -0.43 2.758 -0.14 3.778 0.882 1.032 1.03 1.316 2.516 0.876 3.8l5.316 5.32c1.29 -0.446 2.774 -0.156 3.8 0.87 1.442 1.44 1.442 3.768 0 5.208 -1.438 1.438 -3.762 1.438 -5.2 0 -1.078 -1.082 -1.348 -2.674 -0.808 -3.992L25.72 17.91v13.05c0.352 0.172 0.684 0.406 0.976 0.696 1.426 1.442 1.426 3.766 0 5.2 -1.438 1.442 -3.778 1.442 -5.218 0 -1.438 -1.438 -1.438 -3.758 0 -5.196 0.364 -0.36 0.774 -0.632 1.21 -0.812V17.67c-0.434 -0.182 -0.848 -0.444 -1.2 -0.802 -1.09 -1.09 -1.352 -2.684 -0.792 -4.018L15.272 7.4 0.9 21.762c-1.2 1.21 -1.2 3.168 0 4.378l20.96 20.954c1.208 1.208 3.164 1.208 4.372 0l20.86 -20.86c1.21 -1.206 1.21 -3.164 0 -4.374" fill="#77bef8" stroke-width="2"></path>
</svg>