<svg role="img" viewBox="0 0 48 48" xmlns="http://www.w3.org/2000/svg" id="Jest--Streamline-Simple-Icons" height="48" width="48">
  <desc>
    Jest Streamline Icon: https://streamlinehq.com
  </desc>
  <title>Jest</title>
  <path d="M44.502 23.64a6.234 6.234 0 0 0 -4.656 -6.02L45.822 0H16.208L22.2 17.676a6.232 6.232 0 0 0 -4.488 5.976c0 2.086 1.04 3.934 2.626 5.072a16.558 16.558 0 0 1 -2.168 2.488 16.28 16.28 0 0 1 -5.1 3.294c-1.668 -1.126 -2.39 -3.112 -1.738 -4.892a6.22 6.22 0 0 0 -1.82 -12.16 6.234 6.234 0 0 0 -6.226 6.226c0 1.696 0.694 3.252 1.806 4.364 -0.096 0.194 -0.194 0.39 -0.292 0.598 -0.93 1.918 -1.986 4.086 -2.39 6.518 -0.806 4.864 0.514 8.768 3.698 10.978A10.186 10.186 0 0 0 11.998 48c3.654 0 7.364 -1.834 10.95 -3.614 2.558 -1.264 5.198 -2.584 7.796 -3.224 0.96 -0.236 1.96 -0.374 3.016 -0.528 2.14 -0.306 4.35 -0.624 6.336 -1.78a8.964 8.964 0 0 0 4.364 -6.182c0.348 -1.988 0 -3.988 -0.888 -5.74 0.596 -0.96 0.93 -2.084 0.93 -3.294zm-2.71 0c0 1.93 -1.57 3.5 -3.5 3.5a3.506 3.506 0 0 1 -2.17 -6.252l0.014 -0.014c0.112 -0.084 0.236 -0.168 0.36 -0.25 0 0 0.016 0 0.016 -0.014 0.056 -0.028 0.11 -0.07 0.166 -0.1 0.014 0 0.028 -0.012 0.042 -0.012 0.056 -0.028 0.126 -0.056 0.194 -0.084 0.07 -0.028 0.14 -0.054 0.196 -0.082 0.014 0 0.026 -0.014 0.04 -0.014 0.056 -0.014 0.112 -0.042 0.168 -0.056 0.014 0 0.04 -0.014 0.056 -0.014 0.068 -0.014 0.124 -0.028 0.194 -0.04h0.014l0.208 -0.044c0.014 0 0.04 0 0.056 -0.014 0.056 0 0.11 -0.014 0.166 -0.014h0.07c0.07 0 0.14 -0.014 0.222 -0.014h0.18c0.056 0 0.1 0 0.154 0.014h0.028c0.11 0.014 0.222 0.028 0.334 0.056a3.532 3.532 0 0 1 2.792 3.446zM20.086 2.78h21.86l-5.018 14.8c-0.208 0.04 -0.416 0.11 -0.624 0.18l-5.28 -10.77 -5.296 10.7c-0.208 -0.068 -0.432 -0.11 -0.654 -0.152l-4.988 -14.76zm9.936 19.65a6.166 6.166 0 0 0 -1.876 -3.336l2.876 -5.808 2.904 5.934c-0.86 0.86 -1.486 1.96 -1.736 3.21H30.02zm-6.962 -2.196c0.068 -0.014 0.124 -0.028 0.194 -0.04h0.04c0.058 -0.016 0.112 -0.016 0.168 -0.03h0.056c0.056 0 0.098 -0.014 0.152 -0.014h0.542c0.056 0 0.098 0.014 0.14 0.014 0.028 0 0.04 0 0.07 0.014 0.054 0.014 0.096 0.014 0.152 0.028 0.014 0 0.028 0 0.056 0.014l0.194 0.04h0.014c0.056 0.016 0.112 0.03 0.166 0.058 0.014 0 0.028 0.014 0.056 0.014 0.042 0.014 0.098 0.028 0.14 0.054 0.014 0 0.028 0.014 0.04 0.014 0.056 0.028 0.112 0.042 0.168 0.07h0.014a0.748 0.748 0 0 1 0.18 0.098h0.014c0.056 0.028 0.112 0.068 0.168 0.096 0.014 0 0.014 0.014 0.026 0.014 0.056 0.028 0.1 0.07 0.154 0.098l0.014 0.014c0.166 0.124 0.32 0.264 0.472 0.402l0.014 0.014a3.494 3.494 0 0 1 0.96 2.418 3.504 3.504 0 0 1 -7.004 0 3.484 3.484 0 0 1 2.64 -3.39zm-13.676 -0.098c1.932 0 3.502 1.572 3.502 3.502s-1.57 3.502 -3.5 3.502 -3.504 -1.57 -3.504 -3.5 1.572 -3.504 3.502 -3.504zm32.326 12.05a6.14 6.14 0 0 1 -3.016 4.266c-1.516 0.876 -3.378 1.154 -5.338 1.432a34.58 34.58 0 0 0 -3.28 0.582c-2.89 0.71 -5.668 2.1 -8.364 3.434 -3.448 1.708 -6.7 3.32 -9.714 3.32a7.29 7.29 0 0 1 -4.308 -1.376c-3.058 -2.112 -2.906 -6.072 -2.544 -8.24 0.334 -2.03 1.264 -3.932 2.154 -5.754 0.056 -0.11 0.098 -0.208 0.154 -0.32 0.304 0.112 0.624 0.196 0.958 0.252 -0.528 2.946 0.972 5.988 3.892 7.49l0.528 0.278 0.568 -0.208c2.432 -0.862 4.684 -2.266 6.672 -4.142a18.668 18.668 0 0 0 2.89 -3.432c0.32 0.054 0.64 0.068 0.96 0.068a6.234 6.234 0 0 0 6.016 -4.654h2.334a6.218 6.218 0 0 0 6.02 4.654c1.152 0 2.22 -0.32 3.14 -0.86 0.36 1.04 0.472 2.126 0.278 3.21z" fill="#034d54" stroke-width="2"></path>
</svg>