<svg width="15" height="15" viewBox="0 0 30 30" xmlns="http://www.w3.org/2000/svg">
    <path fill="#fff" d="M6.71652 29.75H0.495536V9.88789H6.71652V29.75ZM3.60268 7.17852C1.61384 7.17852 0 5.54492 0 3.57266C0 2.62513 0.379567 1.71641 1.0552 1.04641C1.73083 0.376404 2.64719 0 3.60268 0C4.55817 0 5.47452 0.376404 6.15016 1.04641C6.82579 1.71641 7.20536 2.62513 7.20536 3.57266C7.20536 5.54492 5.59152 7.17852 3.60268 7.17852ZM29.9933 29.75H23.7857V20.0812C23.7857 17.777 23.7388 14.8219 20.5513 14.8219C17.317 14.8219 16.8214 17.3254 16.8214 19.9152V29.75H10.6071V9.88789H16.5737V12.5973H16.6607C17.4911 11.0367 19.5201 9.38984 22.5469 9.38984C28.8415 9.38984 30 13.5004 30 18.8395V29.75H29.9933Z"/>
</svg>
