<svg width="18" height="20" viewBox="0 0 18 20" fill="none" xmlns="http://www.w3.org/2000/svg">
<path d="M9.97768 0C4.46429 0 0 4.47768 0 10C0 15.5223 4.46429 20 9.97768 20C12.683 20 15.1339 18.9196 16.933 17.1696C17.1562 16.9509 17.2143 16.6116 17.0714 16.3348C16.9286 16.058 16.6205 15.9018 16.3125 15.9554C15.875 16.0312 15.4286 16.0714 14.9688 16.0714C10.6429 16.0714 7.13393 12.5536 7.13393 8.21429C7.13393 5.27679 8.74107 2.71875 11.1205 1.37054C11.3929 1.21429 11.5312 0.901786 11.4643 0.598214C11.3973 0.294643 11.1384 0.0669644 10.8259 0.0401786C10.5446 0.0178572 10.2634 0.00446422 9.97768 0.00446422V0Z" fill="#181A23"/>
</svg>
