<svg role="img" viewBox="0 0 48 48" xmlns="http://www.w3.org/2000/svg" id="Mysql--Streamline-Simple-Icons" height="48" width="48">
  <desc>
    Mysql Streamline Icon: https://streamlinehq.com
  </desc>
  <title>MySQL</title>
  <path d="M32.81 11.002c-0.23 0 -0.386 0.028 -0.548 0.066v0.026h0.028c0.108 0.208 0.292 0.36 0.428 0.546 0.108 0.214 0.2 0.428 0.308 0.64l0.028 -0.03c0.188 -0.132 0.28 -0.344 0.28 -0.666 -0.08 -0.094 -0.092 -0.188 -0.16 -0.28 -0.08 -0.134 -0.252 -0.2 -0.36 -0.306zM11.54 37.39h-1.854a101.708 101.708 0 0 0 -0.54 -8.82h-0.016l-2.82 8.82H4.9l-2.8 -8.82h-0.02a145.784 145.784 0 0 0 -0.39 8.82H0c0.11 -3.932 0.384 -7.62 0.82 -11.06h2.3l2.67 8.128h0.016l2.694 -8.128h2.19c0.484 4.03 0.768 7.72 0.856 11.06zm8.034 -8.16c-0.756 4.09 -1.752 7.066 -2.984 8.92 -0.964 1.432 -2.02 2.146 -3.166 2.146 -0.306 0 -0.68 -0.092 -1.132 -0.276v-0.988c0.22 0.034 0.48 0.052 0.772 0.052 0.536 0 0.966 -0.15 1.294 -0.444 0.394 -0.36 0.59 -0.764 0.59 -1.21 0 -0.31 -0.154 -0.94 -0.46 -1.888L12.46 29.23h1.82l1.454 4.72c0.328 1.072 0.466 1.82 0.41 2.246 0.8 -2.128 1.356 -4.454 1.67 -6.966zm24.65 8.16h-5.26v-11.06h1.77v9.7h3.49zm-6.64 0.27 -2.032 -1c0.18 -0.152 0.354 -0.316 0.51 -0.5 0.866 -1.012 1.296 -2.516 1.296 -4.506 0 -3.66 -1.436 -5.492 -4.31 -5.492 -1.408 0 -2.508 0.464 -3.3 1.394 -0.86 1.016 -1.292 2.512 -1.292 4.49 0 1.944 0.38 3.372 1.148 4.28 0.7 0.82 1.754 1.23 3.166 1.23 0.528 0 1.012 -0.066 1.45 -0.196l2.65 1.544 0.72 -1.244zM31 35.176c-0.45 -0.72 -0.674 -1.88 -0.674 -3.472 0 -2.786 0.848 -4.18 2.54 -4.18 0.886 0 1.54 0.334 1.954 1 0.448 0.724 0.672 1.872 0.672 3.446 0 2.808 -0.848 4.216 -2.54 4.216 -0.89 0 -1.54 -0.334 -1.956 -1zm-3.316 -0.85c0 0.94 -0.344 1.712 -1.032 2.312 -0.688 0.6 -1.606 0.9 -2.768 0.9 -1.086 0 -2.128 -0.344 -3.146 -1.03l0.474 -0.952c0.876 0.44 1.666 0.656 2.38 0.656 0.664 0 1.186 -0.146 1.566 -0.44a1.508 1.508 0 0 0 0.6 -1.23c0 -0.66 -0.46 -1.22 -1.296 -1.69 -0.776 -0.426 -2.326 -1.314 -2.326 -1.314 -0.844 -0.614 -1.264 -1.272 -1.264 -2.354 0 -0.9 0.314 -1.62 0.94 -2.17 0.63 -0.556 1.44 -0.83 2.44 -0.83 1.024 0 1.96 0.272 2.8 0.82l-0.426 0.952a5.452 5.452 0 0 0 -2.128 -0.46c-0.566 0 -1.004 0.136 -1.308 0.412a1.37 1.37 0 0 0 -0.496 1.048c0 0.656 0.468 1.22 1.332 1.7 0.786 0.43 2.374 1.34 2.374 1.34 0.866 0.61 1.296 1.26 1.296 2.336zm18.764 -11.704c-1.07 -0.028 -1.9 0.08 -2.594 0.376 -0.2 0.08 -0.52 0.08 -0.548 0.334 0.11 0.106 0.126 0.28 0.22 0.428 0.16 0.268 0.436 0.626 0.692 0.814 0.28 0.22 0.56 0.432 0.854 0.62 0.52 0.32 1.11 0.51 1.62 0.832 0.29 0.188 0.586 0.426 0.88 0.626 0.146 0.1 0.24 0.28 0.428 0.344v-0.04c-0.092 -0.12 -0.12 -0.294 -0.21 -0.428 -0.134 -0.134 -0.268 -0.254 -0.4 -0.386a6.446 6.446 0 0 0 -1.39 -1.35c-0.428 -0.292 -1.364 -0.7 -1.54 -1.19l-0.026 -0.028c0.292 -0.026 0.64 -0.132 0.92 -0.212 0.454 -0.12 0.87 -0.094 1.34 -0.212 0.212 -0.054 0.426 -0.12 0.64 -0.188v-0.12c-0.24 -0.24 -0.42 -0.566 -0.668 -0.79a17.734 17.734 0 0 0 -2.208 -1.646c-0.42 -0.268 -0.952 -0.44 -1.394 -0.668 -0.16 -0.08 -0.428 -0.12 -0.52 -0.254 -0.24 -0.292 -0.38 -0.68 -0.55 -1.028a35.38 35.38 0 0 1 -1.094 -2.326c-0.24 -0.524 -0.386 -1.046 -0.68 -1.526 -1.38 -2.274 -2.874 -3.652 -5.172 -5 -0.494 -0.28 -1.086 -0.4 -1.712 -0.548 -0.334 -0.016 -0.668 -0.04 -1 -0.054 -0.22 -0.094 -0.432 -0.348 -0.62 -0.47 -0.76 -0.48 -2.728 -1.52 -3.288 -0.144 -0.36 0.868 0.534 1.724 0.844 2.164 0.23 0.306 0.52 0.656 0.68 1 0.094 0.232 0.12 0.47 0.214 0.712 0.212 0.588 0.414 1.244 0.694 1.794 0.146 0.28 0.306 0.574 0.494 0.826 0.108 0.146 0.292 0.214 0.334 0.454 -0.188 0.272 -0.2 0.668 -0.308 1 -0.48 1.514 -0.292 3.386 0.388 4.5 0.214 0.332 0.724 1.068 1.406 0.786 0.6 -0.24 0.468 -1 0.64 -1.67 0.04 -0.16 0.014 -0.266 0.096 -0.374v0.03c0.188 0.376 0.376 0.734 0.548 1.11 0.412 0.656 1.132 1.336 1.734 1.79 0.32 0.24 0.574 0.656 0.974 0.804v-0.04h-0.03c-0.086 -0.116 -0.2 -0.172 -0.308 -0.266a6.89 6.89 0 0 1 -0.7 -0.8 17.52 17.52 0 0 1 -1.494 -2.436c-0.22 -0.42 -0.404 -0.872 -0.58 -1.286 -0.08 -0.16 -0.08 -0.4 -0.214 -0.48 -0.2 0.292 -0.494 0.546 -0.64 0.906 -0.254 0.576 -0.28 1.284 -0.376 2.02 -0.054 0.014 -0.028 0 -0.054 0.028 -0.428 -0.104 -0.574 -0.548 -0.734 -0.92 -0.4 -0.95 -0.466 -2.476 -0.12 -3.57 0.094 -0.28 0.494 -1.164 0.334 -1.432 -0.084 -0.254 -0.348 -0.4 -0.494 -0.606a4.956 4.956 0 0 1 -0.48 -0.854c-0.32 -0.748 -0.48 -1.576 -0.828 -2.324 -0.16 -0.346 -0.44 -0.708 -0.668 -1.026 -0.254 -0.36 -0.534 -0.614 -0.736 -1.04 -0.066 -0.146 -0.16 -0.388 -0.054 -0.548 0.028 -0.108 0.084 -0.15 0.188 -0.18 0.176 -0.144 0.67 0.044 0.844 0.124 0.494 0.2 0.91 0.388 1.324 0.668 0.188 0.132 0.39 0.386 0.63 0.452h0.28c0.428 0.094 0.91 0.028 1.31 0.146 0.71 0.228 1.35 0.56 1.924 0.92a11.906 11.906 0 0 1 4.17 4.572c0.16 0.308 0.23 0.59 0.376 0.91 0.28 0.66 0.626 1.326 0.91 1.964 0.28 0.63 0.55 1.272 0.952 1.794 0.2 0.28 1.004 0.426 1.364 0.572 0.266 0.12 0.68 0.23 0.92 0.376 0.46 0.28 0.908 0.6 1.34 0.908 0.22 0.152 0.886 0.486 0.926 0.756z" fill="#77bef8" stroke-width="2"></path>
</svg>