<svg role="img" viewBox="0 0 48 48" xmlns="http://www.w3.org/2000/svg" id="Dotnet--Streamline-Simple-Icons" height="48" width="48">
  <desc>
    Dotnet Streamline Icon: https://streamlinehq.com
  </desc>
  <title>.NET</title>
  <path d="M48 17.54h-4.936v15.13h-2.85V17.54h-4.924V15.06H48zm-13.704 15.13h-9.642V15.06h9.26v2.48h-6.41v4.988h5.906v2.468h-5.906v5.208h6.792zm-13.416 0H17.764L9.56 19.726a5.792 5.792 0 0 1 -0.516 -1.02h-0.072c0.064 0.378 0.096 1.184 0.096 2.42v11.544H6.314V15.06h3.318l7.93 12.64c0.334 0.522 0.55 0.884 0.646 1.08h0.048c-0.08 -0.466 -0.12 -1.258 -0.12 -2.37V15.058h2.744zm-17.406 -1.386a1.736 1.658 0 0 1 -1.738 1.658 1.736 1.658 0 0 1 -1.736 -1.66 1.736 1.658 0 0 1 1.736 -1.656 1.736 1.658 0 0 1 1.738 1.658Z" fill="#034d54" stroke-width="2"></path>
</svg>