<svg role="img" viewBox="0 0 48 48" xmlns="http://www.w3.org/2000/svg" id="Nodedotjs--Streamline-Simple-Icons" height="48" width="48">
  <desc>
    Nodedotjs Streamline Icon: https://streamlinehq.com
  </desc>
  <title>Node.js</title>
  <path d="M23.996 48c-0.642 0 -1.282 -0.168 -1.844 -0.494L16.28 44.032c-0.876 -0.49 -0.448 -0.664 -0.16 -0.766 1.17 -0.406 1.406 -0.5 2.656 -1.208 0.13 -0.074 0.302 -0.046 0.436 0.034l4.512 2.678c0.164 0.09 0.394 0.09 0.544 0l17.59 -10.152c0.164 -0.094 0.268 -0.282 0.268 -0.476V13.842c0 -0.198 -0.106 -0.384 -0.274 -0.484l-17.582 -10.144c-0.162 -0.094 -0.378 -0.094 -0.542 0L6.15 13.36c-0.17 0.098 -0.278 0.29 -0.278 0.482v20.3c0 0.194 0.108 0.378 0.278 0.47l4.818 2.784c2.614 1.308 4.216 -0.232 4.216 -1.78V15.574c0 -0.284 0.228 -0.506 0.512 -0.506h2.23c0.278 0 0.51 0.224 0.51 0.506v20.042c0 3.49 -1.9 5.49 -5.208 5.49 -1.016 0 -1.818 0 -4.052 -1.102L4.56 37.35c-1.14 -0.658 -1.844 -1.89 -1.844 -3.208V13.842c0 -1.318 0.706 -2.55 1.844 -3.206L22.15 0.472c1.114 -0.63 2.592 -0.63 3.696 0l17.588 10.164c1.14 0.658 1.848 1.888 1.848 3.206v20.3c0 1.318 -0.708 2.546 -1.848 3.208l-17.588 10.156c-0.56 0.326 -1.198 0.494 -1.85 0.494zm14.202 -20.014c0 -3.8 -2.568 -4.812 -7.974 -5.526 -5.462 -0.722 -6.018 -1.096 -6.018 -2.374 0 -1.056 0.47 -2.466 4.516 -2.466 3.614 0 4.946 0.778 5.494 3.214 0.048 0.23 0.258 0.398 0.494 0.398h2.282c0.142 0 0.276 -0.062 0.372 -0.162 0.096 -0.108 0.148 -0.246 0.134 -0.392 -0.354 -4.196 -3.142 -6.152 -8.776 -6.152 -5.016 0 -8.008 2.116 -8.008 5.666 0 3.85 2.976 4.914 7.79 5.39 5.76 0.564 6.206 1.406 6.206 2.538 0 1.966 -1.578 2.804 -5.284 2.804 -4.654 0 -5.678 -1.168 -6.022 -3.484 -0.04 -0.248 -0.252 -0.43 -0.506 -0.43h-2.274c-0.282 0 -0.508 0.224 -0.508 0.506 0 2.964 1.612 6.496 9.31 6.496 5.576 0.002 8.772 -2.192 8.772 -6.026z" fill="#77bef8" stroke-width="2"></path>
</svg>