<svg xmlns="http://www.w3.org/2000/svg" fill="none" viewBox="0 0 48 48" id="Openai-Logo--Streamline-Logos" height="48" width="48">
  <desc>
    Openai Logo Streamline Icon: https://streamlinehq.com
  </desc>
  <path fill="#77bef8" fill-rule="evenodd" d="M9.942 11.226a9.956 9.956 0 0 1 16.406 -5.72 11.2 11.2 0 0 0 -0.502 0.274L14.464 12.352a1 1 0 0 0 -0.5 0.87l0.066 14.714 -4.236 -2.42V12.952a10 10 0 0 1 0.148 -1.726Zm30.5 -0.072a9.912 9.912 0 0 1 1.13 6.972 13.254 13.254 0 0 0 -0.488 -0.3L29.7 11.258a1 1 0 0 0 -1.004 0.002L15.988 18.672l-0.02 -4.88 10.878 -6.28a9.956 9.956 0 0 1 13.596 3.642ZM16.034 29.082 16 20.98l6.998 -4.082 7.032 4.02 0.036 8.1 -6.996 4.08 -7.034 -4.02Zm21.732 -6.046 -12.776 -7.3 4.214 -2.458 10.88 6.28a9.956 9.956 0 0 1 -1.828 18.06c0.008 -0.188 0.014 -0.38 0.014 -0.57v-13.144a1 1 0 0 0 -0.504 -0.868Zm-5.668 13.742 -0.064 -14.714 4.236 2.42v12.564a9.956 9.956 0 0 1 -16.554 7.448c0.168 -0.088 0.334 -0.18 0.5 -0.276l11.382 -6.57a1 1 0 0 0 0.5 -0.872Zm-14.734 1.964 12.71 -7.414 0.022 4.88 -10.88 6.28a9.956 9.956 0 0 1 -14.728 -10.612c0.16 0.102 0.324 0.2 0.49 0.298l11.382 6.57a1 1 0 0 0 1.004 0Zm-9.066 -11.78 12.774 7.3 -4.214 2.46 -10.88 -6.28a9.956 9.956 0 0 1 1.828 -18.06c-0.008 0.188 -0.012 0.38 -0.012 0.57v13.144a1 1 0 0 0 0.504 0.868Z" clip-rule="evenodd" stroke-width="2"></path>
</svg>