<svg role="img" viewBox="0 0 48 48" xmlns="http://www.w3.org/2000/svg" id="Postgresql--Streamline-Simple-Icons" height="48" width="48">
  <desc>
    Postgresql Streamline Icon: https://streamlinehq.com
  </desc>
  <title>PostgreSQL</title>
  <path d="M47.1188 29.4456a1.0538 1.0538 0 0 0 -0.1126 -0.2382c-0.278 -0.5264 -0.9536 -0.6836 -2.0148 -0.4642 -3.3066 0.6822 -4.587 0.2624 -5.0512 -0.0382 2.684 -4.0964 4.89 -9.044 6.0822 -13.6594 0.5428 -2.1014 1.5964 -7.0474 0.2444 -9.4632a3.1282 3.1282 0 0 0 -0.3018 -0.47C43.3862 1.8172 39.6014 0.0496 35.0198 0.001c-2.9894 -0.0316 -5.541 0.6922 -6.2322 0.9588a18.898 18.898 0 0 0 -1.0318 -0.1632 16.088 16.088 0 0 0 -2.6228 -0.2556c-2.3644 -0.0368 -4.4076 0.5284 -6.0996 1.6812 -1.7146 -0.6422 -9.5776 -3.29 -14.4438 0.1576C1.8718 4.3052 0.6172 7.7466 0.8604 12.6086c0.0818 1.636 1.0138 6.668 2.4846 11.4872 0.9196 3.013 1.8774 5.4038 2.8668 7.164 1.106 1.9884 2.2518 3.1866 3.4286 3.579 0.8948 0.2982 2.2654 0.2882 3.7162 -1.4558 1.6024 -1.927 3.1806 -3.6516 3.8892 -4.4138 0.8702 0.471 1.8128 0.725 2.78 0.7544a0.1138 0.1138 0 0 0 0.0008 0.0082 22.0624 22.0624 0 0 0 -0.4944 0.6108c-0.6778 0.8604 -0.8188 1.0394 -3.0004 1.4886 -0.6204 0.128 -2.2688 0.4678 -2.2928 1.623 -0.005 0.2448 0.0658 0.4618 0.1838 0.6536 0.4538 0.8462 1.8432 1.2194 2.03 1.2662 2.669 0.667 5.0088 0.184 6.7428 -1.3574 -0.034 4.462 0.155 8.8348 0.6908 10.1748 0.4424 1.1058 1.5236 3.809 4.9384 3.8086 0.501 0 1.0526 -0.0582 1.6592 -0.1882 3.5638 -0.7642 5.1114 -2.3392 5.71 -5.8118 0.3006 -1.7414 0.8032 -5.7506 1.0776 -8.2024 0.0338 -0.1406 0.0714 -0.2414 0.114 -0.2724 0.0014 -0.001 0.1394 -0.0942 0.8544 0.0614a0.7346 0.7346 0 0 0 0.0886 0.0136l0.5078 0.0446 0.0298 0.002c1.6936 0.0768 3.8228 -0.2852 5.0624 -0.8616 1.2876 -0.5976 3.6114 -2.0646 3.1902 -3.3396zM4.742 23.753c-1.487 -4.8716 -2.3558 -9.7702 -2.4246 -11.1438 -0.2172 -4.3428 0.8342 -7.3658 3.1246 -8.9854 3.6734 -2.5972 9.6796 -1.0816 12.216 -0.26 -0.0064 0.0064 -0.0132 0.0122 -0.0196 0.0188 -4.0476 4.088 -3.9516 11.072 -3.9416 11.499 -0.0004 0.1646 0.0132 0.3978 0.0324 0.7186 0.0696 1.1746 0.1992 3.3608 -0.147 5.8368 -0.3218 2.3008 0.3874 4.5528 1.9456 6.1784 0.1612 0.1682 0.3296 0.3262 0.5036 0.4748 -0.6936 0.7428 -2.2008 2.3852 -3.805 4.3152 -1.1354 1.365 -1.9194 1.1034 -2.1772 1.0174 -0.7838 -0.2614 -1.626 -1.1742 -2.4762 -2.6446 -0.9592 -1.678 -1.927 -4.0634 -2.831 -7.0252zm12.0144 10.1742c-0.3422 -0.0856 -0.6542 -0.2264 -0.8644 -0.3544 0.1778 -0.0788 0.4748 -0.1804 0.9666 -0.2818 2.5666 -0.5282 2.963 -0.9012 3.8286 -2.0004 0.1984 -0.252 0.4232 -0.5374 0.7346 -0.8852a0.7098 0.7098 0 0 0 0.1474 -0.2596c0.3416 -0.3026 0.5448 -0.2198 0.8738 -0.0834 0.312 0.1292 0.6156 0.52 0.739 0.9504 0.0582 0.2032 0.1238 0.589 -0.0904 0.8888 -1.8086 2.5316 -4.4432 2.4988 -6.3352 2.0256zm4.188 -7.976 -0.105 0.282c-0.266 0.7132 -0.5134 1.3762 -0.6668 2.006 -1.3348 -0.0042 -2.6336 -0.5744 -3.621 -1.6048 -1.2558 -1.3102 -1.8262 -3.1328 -1.565 -5.0008 0.3656 -2.6158 0.2306 -4.8936 0.158 -6.1172 -0.01 -0.1714 -0.019 -0.3214 -0.0244 -0.4398 0.5914 -0.5242 3.3318 -1.9924 5.2858 -1.5448 0.8918 0.2044 1.4352 0.8114 1.661 1.856 1.1692 5.4076 0.1548 7.6614 -0.6604 9.4726 -0.168 0.3732 -0.3266 0.7258 -0.4622 1.0908zm14.7274 9.145c-0.0338 0.3536 -0.0716 0.752 -0.1236 1.1918l-0.292 0.8766a0.7094 0.7094 0 0 0 -0.0364 0.2154c-0.0118 0.9494 -0.108 1.2978 -0.23 1.7386 -0.1268 0.4584 -0.2706 0.9782 -0.3588 2.115 -0.22 2.8286 -1.7564 4.4534 -4.8344 5.113 -3.031 0.6502 -3.5686 -0.9936 -4.0424 -2.4434a13.1648 13.1648 0 0 0 -0.1538 -0.4532c-0.4308 -1.1716 -0.3822 -2.8238 -0.3148 -5.1102 0.033 -1.1224 -0.0498 -3.8026 -0.6604 -5.2924 0.0088 -0.5864 0.0212 -1.1818 0.038 -1.7836a0.7058 0.7058 0 0 0 -0.0306 -0.2252 2.9854 2.9854 0 0 0 -0.0878 -0.416c-0.2452 -0.8566 -0.8426 -1.5732 -1.5594 -1.8702 -0.2848 -0.118 -0.8076 -0.3344 -1.4356 -0.1738 0.134 -0.552 0.3662 -1.175 0.618 -1.8498l0.1058 -0.284c0.119 -0.32 0.268 -0.6514 0.426 -1.0024 0.853 -1.8952 2.0212 -4.4906 0.7532 -10.3544 -0.4748 -2.1962 -2.0608 -3.2686 -4.4648 -3.0196 -1.4414 0.1492 -2.7598 0.7308 -3.4176 1.0642a11.3432 11.3432 0 0 0 -0.3916 0.2082c0.1836 -2.2128 0.8772 -6.3482 3.4714 -8.9646a8.0612 8.0612 0 0 1 0.6066 -0.552 0.7064 0.7064 0 0 0 0.2894 -0.1288c1.5048 -1.1412 3.389 -1.7012 5.604 -1.665 0.8182 0.0134 1.6034 0.0678 2.3484 0.162 3.878 0.7088 6.4878 2.8936 8.0718 4.7654 1.6286 1.9246 2.5104 3.863 2.8624 4.9086 -2.6464 -0.2692 -4.4468 0.2536 -5.3594 1.558 -1.9852 2.8378 1.086 8.3458 2.5622 10.9928 0.2706 0.4852 0.5044 0.9044 0.5778 1.0826 0.4806 1.165 1.103 1.9426 1.5574 2.5104 0.1392 0.174 0.2744 0.3428 0.377 0.49 -0.8016 0.231 -2.2416 0.765 -2.1104 3.434 -0.0246 0.3126 -0.0846 0.8938 -0.1668 1.6296 -0.0922 0.4154 -0.1404 0.9206 -0.1988 1.5324zm1.781 -3.2422c-0.081 -1.6632 0.5382 -1.837 1.1934 -2.021a5.7132 5.7132 0 0 0 0.27 -0.0812 2.404 2.404 0 0 0 0.2684 0.206c1.1406 0.753 3.1646 0.8426 6.0136 0.2688 -0.4032 0.3538 -1.0378 0.7988 -1.9066 1.2022 -0.8196 0.3806 -2.1914 0.666 -3.4946 0.7272 -1.4394 0.0672 -2.1718 -0.1614 -2.3442 -0.302zm1.139 -18.5424c-0.0118 0.7016 -0.1084 1.3384 -0.2108 2.0034 -0.11 0.7152 -0.224 1.4548 -0.2528 2.3524 -0.0284 0.8736 0.0808 1.7818 0.1864 2.6602 0.2132 1.774 0.432 3.6006 -0.415 5.4028a7.0544 7.0544 0 0 1 -0.3752 -0.7712c-0.1054 -0.2552 -0.3338 -0.6652 -0.6502 -1.2324 -1.2312 -2.2082 -4.1148 -7.3792 -2.6386 -9.4892 0.759 -1.0854 2.6816 -1.1322 4.3562 -0.926zm0.4568 14.0274a24.7524 24.7524 0 0 0 -0.1706 -0.2148l-0.071 -0.0888c1.4524 -2.399 1.1684 -4.7724 0.9156 -6.877 -0.1038 -0.8636 -0.2018 -1.6792 -0.177 -2.4452 0.0258 -0.8122 0.1332 -1.5086 0.237 -2.1822 0.1278 -0.83 0.2576 -1.6886 0.2218 -2.701 0.0268 -0.1062 0.0376 -0.2316 0.0236 -0.3804 -0.0914 -0.971 -1.1998 -3.876 -3.4588 -6.506 -1.2152 -1.4146 -2.9792 -2.9944 -5.3778 -4.079 1.0502 -0.2132 2.4656 -0.407 4.0488 -0.3718 4.103 0.0912 7.3492 1.627 9.6484 4.5648a1.816 1.816 0 0 1 0.1334 0.2004c1.4462 2.7112 -0.5524 12.5502 -5.9734 21.081zm-17.6332 -12.2324c-0.05 0.3588 -0.6178 0.845 -1.2422 0.845a1.1642 1.1642 0 0 1 -0.1618 -0.0112c-0.3746 -0.052 -0.753 -0.288 -1.0118 -0.6312 -0.0916 -0.121 -0.2406 -0.356 -0.211 -0.5688 0.011 -0.0802 0.0522 -0.197 0.185 -0.2976 0.2364 -0.1788 0.7036 -0.2452 1.2192 -0.1734 0.6326 0.0882 1.2852 0.3876 1.2226 0.8372zm15.861 -0.8228c0.0222 0.1584 -0.098 0.402 -0.3062 0.6204 -0.1366 0.1434 -0.424 0.3922 -0.8158 0.4464a1.0912 1.0912 0 0 1 -0.15 0.0104c-0.587 0 -1.0828 -0.4688 -1.1214 -0.7434 -0.048 -0.353 0.5282 -0.6212 1.1222 -0.704 0.594 -0.0828 1.2222 0.0176 1.2712 0.3702z" fill="#77bef8" stroke-width="2"></path>
</svg>