<svg role="img" viewBox="0 0 48 48" xmlns="http://www.w3.org/2000/svg" id="Python--Streamline-Simple-Icons" height="48" width="48">
  <desc>
    Python Streamline Icon: https://streamlinehq.com
  </desc>
  <title>Python</title>
  <path d="m28.388 0.948 1.7552 0.39 1.4238 0.5072 1.1506 0.585 0.8776 0.6242 0.663 0.663 0.4876 0.663 0.312 0.6436 0.1952 0.5852 0.078 0.507 0.039 0.39 -0.0196 0.2536v10.4144l-0.0976 1.2286 -0.2534 1.0726 -0.4096 0.8972 -0.507 0.741 -0.5852 0.6046 -0.6436 0.4876 -0.6826 0.3706 -0.6824 0.273 -0.6436 0.195 -0.5852 0.1366 -0.507 0.078 -0.4096 0.039H17.7006l-1.3456 0.0974 -1.1506 0.273 -0.9752 0.4292 -0.7996 0.5264 -0.6436 0.6242 -0.5264 0.6826 -0.3902 0.702 -0.2924 0.7216 -0.195 0.6826 -0.1366 0.624 -0.078 0.5266 -0.039 0.4096v5.9678H6.7792l-0.4094 -0.0586 -0.5462 -0.1364 -0.624 -0.234 -0.6826 -0.3512 -0.702 -0.507 -0.7022 -0.702 -0.6826 -0.8972 -0.624 -1.1506 -0.546 -1.4236 -0.4096 -1.7164 -0.273 -2.0476L0.48 23.9416l0.117 -2.3794 0.312 -2.0282 0.4682 -1.6968 0.624 -1.3846 0.702 -1.1116 0.7802 -0.8582 0.819 -0.6436 0.8192 -0.468 0.78 -0.312 0.7022 -0.195 0.624 -0.0976 0.4682 -0.0194h0.312l0.117 0.0194h15.914V11.148H12.6496L12.63 5.7848l-0.039 -0.7216 0.0976 -0.6632 0.2144 -0.6046 0.3316 -0.546 0.4876 -0.507 0.6046 -0.4486 0.741 -0.39 0.8582 -0.351 0.9946 -0.2926 1.1312 -0.234 1.248 -0.195 1.3848 -0.117 1.5016 -0.078 1.6382 -0.039 2.4768 0.0974ZM16.1014 4.8096l-0.4484 0.6436 -0.156 0.7996 0.156 0.7996 0.4484 0.663 0.6436 0.429 0.7996 0.1756 0.7996 -0.1756 0.6436 -0.429 0.4486 -0.663 0.156 -0.7996 -0.156 -0.7996 -0.4486 -0.6436 -0.6436 -0.4292 -0.7996 -0.1754 -0.7996 0.1754Zm25.5288 7.7034 0.5462 0.117 0.624 0.234 0.6826 0.3512 0.702 0.5264 0.7022 0.6826 0.6826 0.9166 0.624 1.1508 0.546 1.4236 0.4096 1.7162 0.273 2.0282 0.0976 2.3988 -0.117 2.3988 -0.312 2.0284 -0.4682 1.6772 -0.624 1.3846 -0.7022 1.1116 -0.78 0.8776 -0.8192 0.6436 -0.819 0.4682 -0.7802 0.312 -0.702 0.1754 -0.624 0.0976 -0.4682 0.039 -0.312 -0.0194h-16.031v1.5992h11.3894l0.0196 5.3826 0.039 0.702 -0.0976 0.6632 -0.2144 0.6046 -0.3316 0.5656 -0.4876 0.4874 -0.6046 0.4682 -0.741 0.39 -0.8582 0.3316 -0.9946 0.2924 -1.1312 0.2536 -1.248 0.1756 -1.3848 0.1364 -1.5016 0.078 -1.6382 0.0196 -2.4768 -0.078 -2.0868 -0.2732 -1.7552 -0.39 -1.4238 -0.4876 -1.1506 -0.585 -0.8776 -0.6436 -0.663 -0.663 -0.4876 -0.6632 -0.312 -0.6436 -0.1952 -0.585 -0.078 -0.4876 -0.039 -0.39 0.0196 -0.2536v-10.4142l0.0976 -1.2482 0.2534 -1.0532 0.4096 -0.897 0.507 -0.7412 0.5852 -0.624 0.6436 -0.4682 0.6826 -0.39 0.6824 -0.273 0.6436 -0.195 0.5852 -0.117 0.507 -0.078 0.4096 -0.039 0.2536 -0.0196h11.3894l1.3456 -0.0974 1.1506 -0.273 0.9752 -0.4096 0.7996 -0.5462 0.6436 -0.624 0.5266 -0.6826 0.39 -0.702 0.2926 -0.7022 0.195 -0.6826 0.1364 -0.624 0.078 -0.546 0.039 -0.4096V12.435h4.076l0.2732 0.0196Zm-12.618 27.791 -0.4486 0.6436 -0.156 0.7996 0.156 0.7996 0.4486 0.6436 0.6436 0.4486 0.7996 0.156 0.7996 -0.156 0.6436 -0.4486 0.4484 -0.6436 0.156 -0.7996 -0.156 -0.7996 -0.4484 -0.6436 -0.6436 -0.4484 -0.7996 -0.1562 -0.7996 0.1562Z" fill="#77bef8" stroke-width="2"></path>
</svg>