<svg role="img" viewBox="0 0 48 48" xmlns="http://www.w3.org/2000/svg" id="React--Streamline-Simple-Icons" height="48" width="48">
  <desc>
    React Streamline Icon: https://streamlinehq.com
  </desc>
  <title>React</title>
  <path d="M28.46 24.008a4.472 4.472 0 0 1 -4.47 4.472 4.472 4.472 0 0 1 -4.472 -4.472 4.472 4.472 0 0 1 4.47 -4.472 4.472 4.472 0 0 1 4.472 4.472zm5.296 -21.38c-2.692 0 -6.214 1.92 -9.776 5.244 -3.56 -3.306 -7.084 -5.204 -9.774 -5.204 -0.82 0 -1.566 0.186 -2.212 0.556 -2.75 1.586 -3.366 6.528 -1.946 12.73C3.96 17.834 0 20.84 0 24.008c0 3.18 3.98 6.194 10.086 8.06 -1.408 6.226 -0.78 11.176 1.976 12.76 0.64 0.374 1.38 0.55 2.204 0.55 2.69 0 6.214 -1.92 9.776 -5.248 3.56 3.308 7.084 5.206 9.774 5.206 0.82 0 1.566 -0.18 2.212 -0.55 2.748 -1.584 3.366 -6.526 1.946 -12.73C44.04 30.192 48 27.18 48 24.008c0 -3.18 -3.98 -6.194 -10.086 -8.064 1.408 -6.22 0.78 -11.174 -1.976 -12.76 -0.636 -0.368 -1.376 -0.554 -2.184 -0.556zm-0.01 2.18v0.012c0.45 0 0.812 0.088 1.116 0.254 1.332 0.764 1.91 3.67 1.46 7.408 -0.108 0.92 -0.284 1.89 -0.5 2.88 -1.92 -0.472 -4.012 -0.834 -6.214 -1.068 -1.32 -1.81 -2.69 -3.454 -4.07 -4.894 3.184 -2.96 6.174 -4.584 8.21 -4.59zm-19.54 0.04c2.024 0 5.028 1.616 8.22 4.56 -1.372 1.44 -2.74 3.074 -4.04 4.884 -2.214 0.234 -4.308 0.596 -6.226 1.076 -0.224 -0.98 -0.39 -1.928 -0.508 -2.84 -0.46 -3.736 0.108 -6.64 1.428 -7.414 0.38 -0.18 0.8 -0.254 1.126 -0.264zm9.764 6.1c0.91 0.936 1.82 1.984 2.72 3.128 -0.88 -0.04 -1.78 -0.068 -2.69 -0.068 -0.92 0 -1.83 0.02 -2.72 0.068 0.88 -1.144 1.79 -2.192 2.69 -3.13zM24 16.2c1.48 0 2.954 0.068 4.404 0.186 0.812 1.164 1.604 2.406 2.366 3.72 0.744 1.28 1.42 2.58 2.036 3.892 -0.616 1.31 -1.292 2.62 -2.026 3.9 -0.76 1.32 -1.546 2.576 -2.36 3.74 -1.456 0.126 -2.932 0.196 -4.42 0.196 -1.48 0 -2.954 -0.07 -4.404 -0.186 -0.812 -1.164 -1.604 -2.408 -2.366 -3.72 -0.744 -1.28 -1.42 -2.58 -2.036 -3.892 0.606 -1.314 1.292 -2.626 2.026 -3.908 0.76 -1.32 1.546 -2.572 2.36 -3.736 1.456 -0.128 2.932 -0.196 4.42 -0.196zm-7.27 0.508c-0.48 0.754 -0.96 1.526 -1.408 2.32 -0.45 0.78 -0.87 1.564 -1.27 2.348 -0.53 -1.312 -0.98 -2.62 -1.352 -3.894 1.28 -0.3 2.63 -0.566 4.03 -0.772zm14.52 0c1.39 0.206 2.73 0.46 4.012 0.774 -0.36 1.264 -0.81 2.564 -1.32 3.866 -0.4 -0.78 -0.82 -1.566 -1.28 -2.348 -0.45 -0.784 -0.93 -1.548 -1.41 -2.292zm6.126 1.35c0.968 0.3 1.888 0.634 2.75 0.996 3.464 1.48 5.704 3.416 5.704 4.952 -0.01 1.536 -2.25 3.48 -5.714 4.95 -0.84 0.36 -1.76 0.684 -2.71 0.986 -0.56 -1.916 -1.292 -3.912 -2.2 -5.96 0.9 -2.034 1.62 -4.02 2.17 -5.928zm-26.79 0.008c0.556 1.92 1.29 3.914 2.2 5.96 -0.9 2.034 -1.624 4.02 -2.172 5.928 -0.968 -0.3 -1.888 -0.636 -2.74 -1 -3.464 -1.474 -5.704 -3.412 -5.704 -4.948 0 -1.536 2.24 -3.484 5.704 -4.952 0.84 -0.36 1.76 -0.684 2.712 -0.988zm23.356 8.56c0.53 1.314 0.98 2.624 1.352 3.896 -1.28 0.314 -2.632 0.58 -4.032 0.78 0.48 -0.75 0.96 -1.524 1.41 -2.316 0.45 -0.78 0.87 -1.576 1.272 -2.36zm-19.89 0.04c0.4 0.784 0.82 1.566 1.28 2.35 0.46 0.78 0.93 1.544 1.41 2.286 -1.39 -0.204 -2.73 -0.46 -4.012 -0.772 0.36 -1.26 0.812 -2.564 1.32 -3.866zM35.84 32.64c0.224 0.986 0.4 1.936 0.508 2.846 0.46 3.736 -0.108 6.64 -1.428 7.416 -0.294 0.18 -0.676 0.256 -1.126 0.256 -2.024 0 -5.028 -1.614 -8.22 -4.56 1.372 -1.44 2.74 -3.072 4.04 -4.88 2.214 -0.236 4.308 -0.6 6.226 -1.08zm-23.66 0.02c1.92 0.468 4.012 0.83 6.214 1.064 1.32 1.81 2.69 3.454 4.07 4.892 -3.19 2.966 -6.184 4.59 -8.22 4.59 -0.44 -0.01 -0.812 -0.1 -1.106 -0.264 -1.332 -0.76 -1.91 -3.668 -1.46 -7.406 0.108 -0.92 0.284 -1.888 0.5 -2.876zm9.12 1.28c0.88 0.04 1.78 0.068 2.69 0.068 0.92 0 1.83 -0.02 2.72 -0.068 -0.88 1.144 -1.79 2.19 -2.69 3.13 -0.91 -0.94 -1.82 -1.986 -2.72 -3.13z" fill="#77bef8" stroke-width="2"></path>
</svg>