<svg width="20" height="20" viewBox="0 0 20 20" fill="none" xmlns="http://www.w3.org/2000/svg">
<g clip-path="url(#clip0_98_5)">
<path d="M14.1213 0.0471006C14.3166 0.129132 14.4573 0.304913 14.4963 0.511944L15.2737 4.72679L19.4885 5.50023C19.6955 5.53929 19.8713 5.67991 19.9534 5.87523C20.0354 6.07054 20.0119 6.29319 19.8909 6.46898L17.4573 10.0002L19.8909 13.5276C20.0119 13.7034 20.0354 13.926 19.9534 14.1213C19.8713 14.3166 19.6955 14.4573 19.4885 14.4963L15.2737 15.2737L14.4963 19.4885C14.4573 19.6955 14.3166 19.8713 14.1213 19.9534C13.926 20.0354 13.7034 20.0119 13.5276 19.8909L10.0002 17.4573L6.47288 19.8909C6.2971 20.0119 6.07444 20.0354 5.87913 19.9534C5.68382 19.8713 5.54319 19.6955 5.50413 19.4885L4.72679 15.2737L0.511944 14.4963C0.304913 14.4573 0.129132 14.3166 0.0471006 14.1213C-0.0349307 13.926 -0.0114932 13.7034 0.109601 13.5276L2.54319 10.0002L0.109601 6.47288C-0.0114932 6.2971 -0.0349307 6.07444 0.0471006 5.87913C0.129132 5.68382 0.304913 5.54319 0.511944 5.50413L4.72679 4.72679L5.50413 0.511944C5.54319 0.304913 5.68382 0.129132 5.87913 0.0471006C6.07444 -0.0349307 6.2971 -0.0114932 6.47288 0.109601L10.0002 2.54319L13.5276 0.109601C13.7034 -0.0114932 13.926 -0.0349307 14.1213 0.0471006ZM6.25023 10.0002C6.25023 9.00566 6.64531 8.05184 7.34858 7.34858C8.05184 6.64531 9.00566 6.25023 10.0002 6.25023C10.9948 6.25023 11.9486 6.64531 12.6519 7.34858C13.3551 8.05184 13.7502 9.00566 13.7502 10.0002C13.7502 10.9948 13.3551 11.9486 12.6519 12.6519C11.9486 13.3551 10.9948 13.7502 10.0002 13.7502C9.00566 13.7502 8.05184 13.3551 7.34858 12.6519C6.64531 11.9486 6.25023 10.9948 6.25023 10.0002ZM15.0002 10.0002C15.0002 8.67414 14.4734 7.40237 13.5358 6.46469C12.5981 5.52701 11.3263 5.00023 10.0002 5.00023C8.67414 5.00023 7.40237 5.52701 6.46469 6.46469C5.52701 7.40237 5.00023 8.67414 5.00023 10.0002C5.00023 11.3263 5.52701 12.5981 6.46469 13.5358C7.40237 14.4734 8.67414 15.0002 10.0002 15.0002C11.3263 15.0002 12.5981 14.4734 13.5358 13.5358C14.4734 12.5981 15.0002 11.3263 15.0002 10.0002Z" fill="#77BEF8"/>
</g>
<defs>
<clipPath id="clip0_98_5">
<rect width="20" height="20" fill="white"/>
</clipPath>
</defs>
</svg>
