<svg role="img" viewBox="0 0 48 48" xmlns="http://www.w3.org/2000/svg" id="Tailwindcss--Streamline-Simple-Icons" height="48" width="48">
  <desc>
    Tailwindcss Streamline Icon: https://streamlinehq.com
  </desc>
  <title>Tailwind CSS</title>
  <path d="M24.002 9.6c-6.4 0 -10.4 3.2 -12 9.6 2.4 -3.2 5.2 -4.4 8.4 -3.6 1.826 0.456 3.13 1.78 4.576 3.248C27.332 21.236 30.054 24 36.002 24c6.4 0 10.4 -3.2 12 -9.6 -2.4 3.2 -5.2 4.4 -8.4 3.6 -1.826 -0.456 -3.13 -1.78 -4.576 -3.248C32.674 12.364 29.952 9.6 24.002 9.6zm-12 14.4c-6.4 0 -10.4 3.2 -12 9.6 2.4 -3.2 5.2 -4.4 8.4 -3.6 1.826 0.456 3.13 1.78 4.576 3.248 2.354 2.388 5.076 5.152 11.024 5.152 6.4 0 10.4 -3.2 12 -9.6 -2.4 3.2 -5.2 4.4 -8.4 3.6 -1.826 -0.456 -3.13 -1.78 -4.576 -3.248C20.674 26.764 17.952 24 12.002 24z" fill="#77bef8" stroke-width="2"></path>
</svg>