<svg role="img" viewBox="0 0 48 48" xmlns="http://www.w3.org/2000/svg" id="Typescript--Streamline-Simple-Icons" height="48" width="48">
  <desc>
    Typescript Streamline Icon: https://streamlinehq.com
  </desc>
  <title>TypeScript</title>
  <path d="M2.25 0C1.004 0 0 1.004 0 2.25v43.5C0 46.996 1.004 48 2.25 48h43.5c1.246 0 2.25 -1.004 2.25 -2.25V2.25C48 1.004 46.996 0 45.75 0zm34.726 19.5c1.224 0 2.308 0.074 3.254 0.222a12.76 12.76 0 0 1 2.612 0.68v4.916a7.9 7.9 0 0 0 -1.286 -0.722 10.186 10.186 0 0 0 -1.434 -0.52 10.906 10.906 0 0 0 -2.852 -0.4c-0.6 0 -1.146 0.056 -1.638 0.172a4.2 4.2 0 0 0 -1.246 0.484c-0.34 0.208 -0.6 0.458 -0.786 0.748a1.776 1.776 0 0 0 -0.28 0.98c0 0.392 0.106 0.746 0.312 1.058 0.208 0.312 0.504 0.608 0.886 0.888s0.846 0.552 1.392 0.82c0.546 0.27 1.164 0.548 1.852 0.832 0.94 0.394 1.784 0.814 2.532 1.256 0.748 0.444 1.39 0.946 1.926 1.506 0.536 0.558 0.944 1.196 1.228 1.914 0.284 0.718 0.428 1.552 0.428 2.506 0 1.314 -0.25 2.42 -0.746 3.312a6.066 6.066 0 0 1 -2.024 2.17 8.76 8.76 0 0 1 -2.974 1.192c-1.132 0.24 -2.326 0.36 -3.58 0.36a19.832 19.832 0 0 1 -3.68 -0.328 11.088 11.088 0 0 1 -3.024 -0.986v-5.26a10.066 10.066 0 0 0 6.474 2.4c0.666 0 1.248 -0.06 1.744 -0.18 0.498 -0.12 0.912 -0.288 1.246 -0.5 0.332 -0.216 0.58 -0.468 0.746 -0.76a2.046 2.046 0 0 0 -0.148 -2.178 4.24 4.24 0 0 0 -1.074 -1 11.194 11.194 0 0 0 -1.614 -0.888 55.44 55.44 0 0 0 -2.014 -0.872c-1.836 -0.766 -3.204 -1.704 -4.106 -2.81 -0.9 -1.106 -1.352 -2.444 -1.352 -4.01 0 -1.228 0.246 -2.282 0.738 -3.164 0.492 -0.882 1.16 -1.608 2.008 -2.178a8.988 8.988 0 0 1 2.94 -1.258 15.072 15.072 0 0 1 3.54 -0.402zm-30.226 0.376h19.126v4.332H19.012v19.292H13.578v-19.292H6.75z" fill="#77bef8" stroke-width="2"></path>
</svg>